<svg xmlns="http://www.w3.org/2000/svg" viewBox="0 0 1200 900" width="1200" height="900">
  <defs><pattern id="dots3" width="26" height="26" patternUnits="userSpaceOnUse">
      <circle cx="13" cy="13" r="4.42" fill="#f2f1ec"/>
    </pattern></defs>
  <rect width="1200" height="900" fill="#0b0d0e"/>
  <rect x="0" y="600" width="600" height="600" fill="#f2f1ec" opacity="0.14"/>
  <rect x="600" y="300" width="600" height="300" fill="#ccff3d" opacity="0.9"/>
  <rect x="0" y="300" width="300" height="600" fill="#f2f1ec" opacity="0.14"/>
  <rect x="300" y="600" width="600" height="600" fill="#ccff3d" opacity="0.9"/>
  <rect x="900" y="0" width="600" height="600" fill="#f2f1ec" opacity="0.14"/>
  <circle cx="203.16120348870754" cy="585.9504699753597" r="261.5429645986296" fill="none" stroke="#f2f1ec" stroke-width="2" opacity="0.5"/>
  <circle cx="333.93268578802235" cy="507.48758059577085" r="109.84804513142444" fill="#ccff3d"/>
  <rect x="0" y="495.00000000000006" width="1200" height="405" fill="url(#dots3)"/>
  <rect x="0" y="591.1039804946631" width="1200" height="3" fill="#f2f1ec" opacity="0.35"/>
  <rect x="0" y="730.3973782621324" width="1200" height="1" fill="#f2f1ec" opacity="0.35"/>
  <rect x="0" y="792.3684440786019" width="1200" height="1" fill="#f2f1ec" opacity="0.35"/>
  <rect x="240.11953698471189" y="640" width="210.7168143382296" height="18" rx="9" fill="#ccff3d" opacity="1"/>
  <rect x="240.11953698471189" y="674" width="430.1778458850458" height="18" rx="9" fill="#f2f1ec" opacity="0.25"/>
  <rect x="240.11953698471189" y="708" width="453.83812953718007" height="18" rx="9" fill="#f2f1ec" opacity="0.25"/>
  <rect x="240.11953698471189" y="742" width="245.8210767013952" height="18" rx="9" fill="#f2f1ec" opacity="0.25"/>
</svg>