<svg xmlns="http://www.w3.org/2000/svg" viewBox="0 0 1200 900" width="1200" height="900">
  <defs><pattern id="dots4" width="26" height="26" patternUnits="userSpaceOnUse">
      <circle cx="13" cy="13" r="4.42" fill="#14150f"/>
    </pattern></defs>
  <rect width="1200" height="900" fill="#e9e5d9"/>
  <rect x="600" y="300" width="600" height="600" fill="#b7bda6" opacity="0.9"/>
  <rect x="900" y="600" width="300" height="300" fill="#14150f" opacity="0.14"/>
  <rect x="0" y="300" width="300" height="600" fill="#b7bda6" opacity="0.9"/>
  <rect x="300" y="600" width="600" height="600" fill="#14150f" opacity="0.14"/>
  <rect x="900" y="600" width="300" height="600" fill="#b7bda6" opacity="0.9"/>
  <circle cx="243.15402545034885" cy="268.0022830562666" r="243.20860317442566" fill="none" stroke="#14150f" stroke-width="4" opacity="0.5"/>
  <circle cx="364.7583270375617" cy="195.0397021039389" r="102.14761333325878" fill="#2f5d3a"/>
  <rect x="0" y="495.00000000000006" width="1200" height="405" fill="url(#dots4)"/>
  <rect x="0" y="251.07005932834" width="1200" height="1" fill="#14150f" opacity="0.35"/>
  <rect x="0" y="114.37760321423411" width="1200" height="2" fill="#14150f" opacity="0.35"/>
  <rect x="0" y="517.8341793920845" width="1200" height="2" fill="#14150f" opacity="0.35"/>
  <rect x="139.58239254541695" y="640" width="505.50443443469703" height="18" rx="9" fill="#2f5d3a" opacity="1"/>
  <rect x="139.58239254541695" y="674" width="140.13462151866406" height="18" rx="9" fill="#14150f" opacity="0.25"/>
  <rect x="139.58239254541695" y="708" width="239.7486644005403" height="18" rx="9" fill="#14150f" opacity="0.25"/>
  <rect x="139.58239254541695" y="742" width="340.3502114675939" height="18" rx="9" fill="#14150f" opacity="0.25"/>
</svg>