<svg xmlns="http://www.w3.org/2000/svg" viewBox="0 0 1200 900" width="1200" height="900">
  <defs><pattern id="dots2" width="26" height="26" patternUnits="userSpaceOnUse">
      <circle cx="13" cy="13" r="4.42" fill="#e9e6da"/>
    </pattern></defs>
  <rect width="1200" height="900" fill="#131612"/>
  <rect x="300" y="0" width="600" height="300" fill="#e9e6da" opacity="0.14"/>
  <rect x="0" y="600" width="600" height="600" fill="#39423a" opacity="0.9"/>
  <rect x="0" y="600" width="300" height="600" fill="#e9e6da" opacity="0.14"/>
  <rect x="600" y="300" width="300" height="300" fill="#39423a" opacity="0.9"/>
  <rect x="900" y="600" width="300" height="600" fill="#39423a" opacity="0.9"/>
  <circle cx="719.0175477415323" cy="631.6041818121448" r="266.2156577478163" fill="none" stroke="#e9e6da" stroke-width="4" opacity="0.5"/>
  <circle cx="852.1253766154405" cy="551.7394844877999" r="111.81057625408285" fill="#5f9e6b"/>
  <rect x="0" y="495.00000000000006" width="1200" height="405" fill="url(#dots2)"/>
  <rect x="0" y="647.5559698836878" width="1200" height="2" fill="#e9e6da" opacity="0.35"/>
  <rect x="0" y="366.71102811582386" width="1200" height="3" fill="#e9e6da" opacity="0.35"/>
  <rect x="0" y="194.97454521246254" width="1200" height="2" fill="#e9e6da" opacity="0.35"/>
  <rect x="242.82757548615336" y="640" width="313.2632821938023" height="18" rx="9" fill="#5f9e6b" opacity="1"/>
  <rect x="242.82757548615336" y="674" width="368.0666334182024" height="18" rx="9" fill="#e9e6da" opacity="0.25"/>
  <rect x="242.82757548615336" y="708" width="316.7963670892641" height="18" rx="9" fill="#e9e6da" opacity="0.25"/>
  <rect x="242.82757548615336" y="742" width="436.51237949263304" height="18" rx="9" fill="#e9e6da" opacity="0.25"/>
</svg>